# xmcd
#
# Track frame offsets:
# 182
# 8530
# 19112
# 32867
# 42742
# 52960
# 61525
# 72087
# 82902
# 96307
# 108885
# 118772
# 130320
# 141437
# 151255
# 162220
# 171342
# 183437
# 195697
# 206857
#
# Disc length: 2932 seconds
#
#
# Revision: 2
# Processed by: cddbd v1.5.2PL0 Copyright (c) Steve Scherf et al.
# Submitted via: FreeRIP 2.52 
#
DISCID=110b7214
DTITLE=Various Artist - 20 Country Classics pt.1
DYEAR=1900
DGENRE=country
TTITLE0=Johnny Cash - Country Boy
TTITLE1=Frankie Laine - Sixteen Tons
TTITLE2=Willie Nelson - No tomorrow in sight
TTITLE3=Hank Loklin - Please helpme I´m falling
TTITLE4=Frankie Laine - I believe
TTITLE5=Sandy Posey - Born a woman
TTITLE6=Carl Belew - Am I that easy to forget
TTITLE7=George Jones - Tender years
TTITLE8=Jimmy Dean - Big bad John
TTITLE9=Frankie Laine - High noon
TTITLE10=Dave Dudley - Six days on the roed
TTITLE11=Patsy Cline - Walking after midnight
TTITLE12=Donna Fango - Wishful thinking
TTITLE13=Faron Young - Sweet dreams
TTITLE14=Carl Perkins - Dixie fried
TTITLE15=Bob Luman - Let´s think about living
TTITLE16=Johnny Cash - I walk the line
TTITLE17=Dolly Parton - Two little orphans
TTITLE18=Waylon Jennings - Sally was a good old girl
TTITLE19=Kenny Rogers - Ruby, don´t take your love to town
EXTD=
EXTT0=
EXTT1=
EXTT2=
EXTT3=
EXTT4=
EXTT5=
EXTT6=
EXTT7=
EXTT8=
EXTT9=
EXTT10=
EXTT11=
EXTT12=
EXTT13=
EXTT14=
EXTT15=
EXTT16=
EXTT17=
EXTT18=
EXTT19=
PLAYORDER=
